<svg id="svg" version="1.1" width="400" height="300" xmlns="http://www.w3.org/2000/svg" xmlns:xlink="http://www.w3.org/1999/xlink" style="display: block;"><g id="svgg"><path id="path0" d="M270.000 14.869 C 268.625 15.216,266.150 16.228,264.500 17.117 C 262.850 18.005,259.831 19.271,257.792 19.930 C 252.918 21.504,244.677 30.560,240.967 38.420 C 238.101 44.492,238.006 45.068,235.339 72.884 C 234.701 79.533,231.413 83.503,227.208 82.699 C 225.738 82.419,223.290 82.833,221.768 83.620 L 219.000 85.051 219.000 97.335 C 219.000 111.640,219.687 113.317,225.627 113.513 C 231.479 113.705,233.918 114.856,234.748 117.817 C 236.203 123.008,235.641 232.802,234.120 240.338 C 232.252 249.596,227.491 253.531,219.296 252.591 L 214.092 251.993 213.515 255.247 C 212.347 261.836,212.462 283.847,213.671 285.063 C 215.416 286.820,239.981 286.659,243.163 284.871 C 250.364 280.824,252.720 279.099,256.651 275.000 C 259.024 272.525,260.974 270.119,260.983 269.654 C 260.992 269.189,261.836 267.614,262.857 266.154 C 263.879 264.694,265.979 259.225,267.524 254.000 L 270.333 244.500 270.916 180.029 L 271.500 115.557 274.000 114.231 C 275.682 113.339,278.479 113.087,282.549 113.460 C 291.946 114.321,292.316 113.789,292.818 98.708 C 293.340 83.049,292.953 82.500,281.389 82.500 C 271.540 82.500,271.000 81.810,271.000 69.243 C 271.000 54.205,274.306 50.000,286.128 50.000 C 295.608 50.000,295.170 50.663,295.983 35.082 C 296.792 19.590,295.958 16.637,290.330 15.075 C 286.249 13.942,274.153 13.819,270.000 14.869 M350.250 33.774 L 333.000 34.047 333.000 44.436 L 333.000 54.824 336.942 55.490 C 345.268 56.897,345.000 53.589,344.998 155.116 C 344.997 251.357,345.076 249.972,339.500 250.786 C 332.588 251.795,333.000 251.050,333.000 262.542 L 333.000 273.045 351.250 272.773 L 369.500 272.500 369.754 153.876 C 369.956 59.673,369.750 35.071,368.754 34.376 C 368.064 33.894,359.738 33.623,350.250 33.774 M26.246 153.227 L 26.500 272.500 44.500 272.500 L 62.500 272.500 62.500 262.000 L 62.500 251.500 58.524 251.000 C 51.619 250.132,51.975 255.719,52.251 152.403 C 52.525 50.070,52.096 56.366,58.826 55.806 L 62.500 55.500 62.500 45.000 L 62.500 34.500 44.246 34.227 L 25.992 33.955 26.246 153.227 M144.627 69.626 C 125.437 73.822,113.965 83.566,107.690 101.000 C 101.967 116.899,103.690 119.000,122.453 119.000 C 138.376 119.000,140.353 118.347,142.373 112.418 C 148.833 93.461,167.830 100.275,169.528 122.158 C 170.485 134.486,170.655 134.357,152.333 135.106 C 113.623 136.687,95.213 160.198,103.476 197.500 C 110.725 230.229,144.081 240.461,165.962 216.668 C 170.941 211.254,171.998 211.564,174.009 219.034 C 175.984 226.369,177.840 227.104,194.701 227.227 C 202.922 227.287,210.233 226.974,210.948 226.532 C 212.634 225.490,211.640 214.895,209.287 208.816 C 207.840 205.079,207.534 197.924,207.009 155.500 L 206.402 106.500 203.643 99.573 C 199.756 89.814,192.541 80.041,187.075 77.128 C 185.659 76.374,183.600 74.974,182.500 74.016 C 180.774 72.514,167.975 69.148,158.500 67.705 C 156.850 67.454,150.607 68.318,144.627 69.626 M167.539 161.043 C 169.949 163.706,170.904 179.329,168.958 184.248 C 163.840 197.180,146.770 199.300,140.863 187.737 C 134.438 175.158,142.630 161.035,157.000 159.916 C 161.125 159.594,164.768 159.257,165.095 159.166 C 165.422 159.075,166.522 159.919,167.539 161.043 " stroke="none" fill="#000000" fill-rule="evenodd"></path></g></svg>