<?xml version="1.0" standalone="no"?>
<!DOCTYPE svg PUBLIC "-//W3C//DTD SVG 20010904//EN"
 "http://www.w3.org/TR/2001/REC-SVG-20010904/DTD/svg10.dtd">
<svg version="1.0" xmlns="http://www.w3.org/2000/svg"
 width="479pt" height="284pt" viewBox="0 0 479 284"
 preserveAspectRatio="xMidYMid meet">
<metadata>
Created by potrace 1.8, written by Peter Selinger 2001-2007
</metadata>
<g transform="translate(0,284) scale(0.080000,-0.080000)"
fill="#000000" stroke="none">
<path d="M0 1770 l0 -1770 2990 0 2990 0 0 1770 0 1770 -2990 0 -2990 0 0
-1770z m4919 975 c10 -5 12 -4 7 3 -5 9 -1 10 16 3 13 -4 31 -7 40 -6 9 2 22
-3 28 -10 6 -7 22 -10 37 -7 19 4 24 2 18 -8 -5 -8 -3 -11 6 -8 8 3 20 -2 27
-11 11 -13 12 -13 7 -1 -4 9 0 7 9 -4 8 -10 19 -15 25 -11 6 3 11 -1 11 -10 0
-9 4 -14 9 -11 4 3 13 -6 19 -19 7 -14 16 -25 22 -25 5 0 10 -7 10 -16 0 -8 5
-12 10 -9 9 5 15 -15 11 -37 0 -5 3 -8 8 -8 8 0 21 -44 26 -86 1 -11 5 -27 10
-34 5 -9 4 -11 -3 -6 -15 9 -15 1 -2 -25 6 -10 7 -19 2 -19 -5 0 -8 -12 -7
-27 1 -16 -3 -31 -9 -35 -7 -5 -6 -8 4 -8 12 0 12 -2 2 -9 -7 -4 -14 -14 -15
-22 -2 -8 -13 -29 -25 -47 -13 -18 -21 -32 -17 -32 3 0 -19 -25 -50 -55 -30
-30 -60 -55 -66 -55 -6 0 -7 -5 -3 -12 5 -8 2 -9 -9 -5 -11 4 -17 1 -17 -9 0
-8 -4 -13 -9 -9 -11 6 -42 -35 -35 -47 3 -4 -2 -5 -10 -2 -11 4 -13 0 -9 -17
4 -15 2 -20 -5 -15 -7 4 -10 -4 -10 -21 1 -16 -2 -38 -6 -51 -8 -24 -8 -24
-136 -24 -44 0 -86 0 -93 1 -11 1 -16 60 -7 81 1 3 2 8 1 12 0 4 3 18 8 30 5
13 9 27 9 31 0 5 9 15 19 24 10 8 11 11 3 7 -8 -4 -1 6 15 22 17 16 34 28 39
25 5 -2 7 3 3 12 -3 9 -3 16 1 15 15 -4 52 24 46 34 -4 6 -3 8 3 5 14 -9 65
42 57 56 -4 7 -4 9 1 5 17 -16 79 83 71 115 -2 9 -1 15 3 13 4 -3 8 15 8 39 1
25 -2 43 -6 40 -4 -2 -7 6 -6 18 1 12 0 27 -2 34 -7 19 -79 62 -99 59 -11 -2
-22 2 -26 7 -4 7 -11 7 -21 -1 -7 -7 -17 -9 -20 -5 -4 3 -14 0 -24 -8 -15 -12
-16 -12 -8 1 8 13 7 13 -11 0 -39 -31 -75 -70 -64 -70 10 0 9 -4 0 -15 -7 -8
-10 -24 -7 -35 4 -17 2 -18 -14 -9 -13 7 -19 6 -19 -1 0 -8 -6 -8 -20 0 -14 8
-20 8 -20 0 0 -6 -5 -8 -12 -4 -11 7 -53 10 -60 4 -10 -7 -48 -5 -48 3 0 6 -5
5 -12 -1 -21 -16 -35 9 -31 53 2 22 4 46 5 53 1 6 4 12 8 12 4 0 7 7 8 15 1 8
3 22 4 30 1 8 5 12 10 9 7 -5 12 10 9 28 0 5 2 7 7 6 4 -2 21 11 39 27 50 47
61 55 76 55 7 0 17 3 21 7 3 4 14 8 24 10 36 7 42 9 48 15 3 4 17 4 31 2 13
-3 22 -1 20 3 -7 11 95 9 112 -2z m-6 -1008 c18 11 37 12 37 2 0 -4 6 -6 14
-3 8 3 17 0 22 -7 4 -7 3 -10 -2 -6 -13 7 -12 -126 1 -135 6 -5 5 -8 -2 -8 -7
0 -10 -6 -7 -14 8 -20 -23 -33 -73 -31 -26 1 -43 -3 -43 -9 0 -7 -3 -7 -8 1
-4 7 -27 11 -58 9 -32 -2 -54 2 -62 11 -7 7 -9 13 -3 13 8 0 8 21 1 40 -1 3
-1 10 0 15 7 28 5 77 -2 81 -5 3 -5 11 1 17 5 7 11 16 13 21 4 12 88 15 88 3
0 -5 7 -4 16 4 13 10 17 10 25 -2 7 -11 9 -10 9 6 1 19 1 19 11 2 6 -10 15
-14 22 -10z m-3978 -177 c2 3 56 3 120 0 64 -3 118 -3 120 0 2 3 38 3 80 0 42
-3 78 -3 80 0 2 3 56 3 120 0 64 -3 118 -3 120 0 2 3 56 3 120 0 64 -3 118 -3
120 -1 6 6 115 4 121 -2 3 -3 16 -2 29 2 13 3 74 4 135 1 62 -3 113 -3 115 0
2 3 56 3 120 0 64 -3 118 -3 120 0 2 3 56 3 120 0 64 -3 118 -3 120 0 2 3 56
3 120 0 64 -3 118 -3 120 0 2 3 56 3 120 0 64 -3 118 -3 120 0 2 3 56 3 120 0
64 -3 118 -3 120 0 2 3 56 3 120 0 64 -3 118 -3 120 0 2 3 47 3 100 0 53 -3
99 -2 102 3 2 4 13 2 24 -3 10 -6 19 -7 19 -2 0 8 71 6 97 -3 7 -2 15 0 18 5
4 7 13 6 26 0 10 -6 19 -7 19 -3 0 7 104 8 165 1 19 -2 21 -9 16 -60 -1 -5 -9
-8 -19 -8 -10 0 -24 -6 -31 -12 -11 -11 -13 -10 -8 5 5 14 3 16 -11 9 -9 -5
-23 -7 -31 -4 -7 2 -17 -2 -22 -9 -5 -8 -9 -9 -9 -4 0 14 -41 17 -56 4 -8 -7
-14 -7 -19 1 -9 14 -45 13 -46 -2 0 -10 -2 -10 -6 0 -2 6 -16 12 -29 12 -18 0
-23 -4 -18 -12 5 -9 2 -9 -9 1 -13 10 -20 11 -31 2 -10 -9 -16 -9 -21 -1 -4 6
-14 10 -23 8 -10 -1 -23 1 -31 6 -10 7 -12 5 -6 -4 5 -9 2 -10 -13 -6 -11 4
-23 2 -27 -3 -4 -7 -13 -6 -26 2 -16 10 -21 9 -29 -3 -5 -8 -10 -10 -10 -5 0
14 -47 18 -55 5 -4 -6 -14 -5 -26 3 -16 10 -21 9 -29 -3 -5 -8 -10 -10 -10 -4
0 12 -27 15 -50 7 -28 -11 -40 -11 -34 -2 7 11 -56 6 -76 -6 -9 -5 -11 -4 -6
4 6 8 -3 10 -31 7 -21 -2 -44 1 -52 8 -12 9 -13 8 -7 -3 7 -10 4 -12 -12 -7
-11 4 -23 2 -27 -3 -4 -7 -13 -6 -26 2 -16 10 -21 9 -29 -3 -5 -8 -10 -10 -10
-5 0 14 -47 18 -55 5 -4 -6 -14 -5 -26 3 -16 10 -21 9 -29 -3 -5 -8 -10 -10
-10 -4 0 12 -27 15 -50 7 -28 -11 -40 -11 -34 -2 7 11 -56 6 -76 -6 -9 -5 -11
-4 -6 4 6 8 -3 10 -31 7 -21 -2 -44 1 -52 8 -12 9 -13 8 -7 -3 7 -10 4 -12
-12 -7 -11 4 -23 2 -27 -3 -4 -7 -13 -6 -26 2 -16 10 -21 9 -29 -3 -5 -8 -10
-10 -10 -5 0 14 -47 18 -55 5 -4 -6 -14 -5 -26 3 -16 10 -21 9 -29 -3 -5 -8
-10 -10 -10 -4 0 12 -27 15 -50 7 -28 -11 -40 -11 -34 -2 7 11 -56 6 -76 -6
-9 -5 -11 -4 -6 4 6 8 -3 10 -31 7 -21 -2 -44 1 -52 8 -12 9 -13 8 -7 -3 7
-10 4 -12 -12 -7 -11 4 -23 2 -27 -3 -4 -7 -13 -6 -26 2 -16 10 -21 9 -29 -3
-5 -8 -10 -10 -10 -5 0 14 -47 18 -55 5 -4 -6 -14 -5 -26 3 -16 10 -21 9 -29
-3 -5 -8 -10 -10 -10 -4 0 12 -27 15 -50 7 -28 -11 -40 -11 -34 -2 7 11 -56 6
-76 -6 -9 -5 -11 -4 -6 4 9 13 -51 10 -74 -4 -9 -5 -11 -4 -6 4 9 13 -51 10
-74 -4 -9 -5 -11 -4 -6 4 6 8 -3 10 -31 7 -21 -2 -44 1 -52 8 -12 9 -13 8 -7
-3 7 -10 4 -12 -12 -7 -11 4 -23 2 -27 -3 -4 -7 -13 -6 -26 2 -16 10 -21 9
-29 -3 -5 -8 -10 -10 -10 -5 0 14 -47 18 -55 5 -4 -6 -14 -5 -26 3 -16 10 -21
9 -29 -3 -5 -8 -10 -10 -10 -4 0 12 -27 15 -50 7 -28 -11 -40 -11 -34 -2 7 11
-56 6 -76 -6 -9 -5 -11 -4 -6 4 9 13 -51 10 -74 -4 -9 -5 -11 -4 -6 4 9 13
-51 10 -74 -4 -9 -5 -11 -4 -6 4 6 8 -3 10 -31 7 -21 -2 -44 1 -52 8 -12 9
-13 8 -7 -3 7 -10 4 -12 -12 -7 -11 4 -23 2 -27 -3 -4 -7 -13 -6 -26 2 -16 10
-21 9 -29 -3 -5 -8 -10 -10 -10 -5 0 14 -47 18 -55 5 -4 -6 -14 -5 -26 3 -16
10 -21 9 -29 -3 -5 -8 -10 -10 -10 -5 0 15 -41 17 -57 3 -9 -7 -17 -7 -28 2
-8 7 -21 10 -30 7 -8 -4 -17 -1 -21 5 -5 7 -3 8 5 3 9 -5 12 0 11 16 -5 55 -7
54 91 49 50 -3 92 -3 94 0z"/>
</g>
</svg>
