<?xml version="1.0" standalone="no"?><!DOCTYPE svg PUBLIC "-//W3C//DTD SVG 1.1//EN" "http://www.w3.org/Graphics/SVG/1.1/DTD/svg11.dtd"><svg t="1519739808227" class="icon" style="" viewBox="0 0 1024 1024" version="1.1" xmlns="http://www.w3.org/2000/svg" p-id="2824" xmlns:xlink="http://www.w3.org/1999/xlink" width="200" height="200"><defs><style type="text/css"></style></defs><path d="M866.327273 341.410909 157.672727 341.410909c-12.846545 0-23.272727-10.426182-23.272727-23.272727s10.426182-23.272727 23.272727-23.272727l708.654545 0c12.846545 0 23.272727 10.426182 23.272727 23.272727S879.173818 341.410909 866.327273 341.410909z" p-id="2825"></path><path d="M621.963636 536.901818 157.672727 536.901818c-12.846545 0-23.272727-10.426182-23.272727-23.272727s10.426182-23.272727 23.272727-23.272727l464.290909 0c12.846545 0 23.272727 10.426182 23.272727 23.272727S634.810182 536.901818 621.963636 536.901818z" p-id="2826"></path><path d="M902.981818 805.725091 493.684364 805.725091c-12.846545 0-23.272727-10.426182-23.272727-23.272727s10.426182-23.272727 23.272727-23.272727L902.981818 759.179636c41.053091 0 74.449455-33.419636 74.449455-74.472727L977.431273 147.083636c0-41.053091-33.396364-74.472727-74.449455-74.472727L121.018182 72.610909c-41.076364 0-74.472727 33.419636-74.472727 74.472727l0 537.6c0 41.076364 33.419636 74.472727 74.472727 74.472727l158.813091 0c12.846545 0 23.272727 10.426182 23.272727 23.272727s-10.426182 23.272727-23.272727 23.272727L121.018182 805.701818c-66.722909 0-121.018182-54.295273-121.018182-121.018182L0 147.083636c0-66.722909 54.295273-121.018182 121.018182-121.018182l781.963636 0c66.722909 0 120.994909 54.295273 120.994909 121.018182l0 537.6C1024 751.429818 969.704727 805.725091 902.981818 805.725091z" p-id="2827"></path><path d="M293.376 1005.777455c-5.957818 0-11.915636-2.280727-16.453818-6.818909-9.099636-9.099636-9.099636-23.808 0-32.907636l200.075636-200.075636c9.099636-9.099636 23.808-9.099636 32.907636 0s9.099636 23.808 0 32.907636l-200.075636 200.075636C305.291636 1003.52 299.333818 1005.777455 293.376 1005.777455z" p-id="2828"></path></svg>