<?xml version="1.0" standalone="no"?><!DOCTYPE svg PUBLIC "-//W3C//DTD SVG 1.1//EN" "http://www.w3.org/Graphics/SVG/1.1/DTD/svg11.dtd"><svg t="1519753212802" class="icon" style="" viewBox="0 0 1024 1024" version="1.1" xmlns="http://www.w3.org/2000/svg" p-id="2568" xmlns:xlink="http://www.w3.org/1999/xlink" width="200" height="200"><defs><style type="text/css"></style></defs><path d="M29.924473 1024l211.821065 0L241.745538 67.153121c0-29.216699-14.608349-58.433397-36.520873-58.433397L66.445346 8.719724c-21.912524 0-36.520873 29.216699-36.520873 58.433397L29.924473 1024 29.924473 1024zM146.791268 929.04573 117.574569 929.04573l0-138.779318L146.791268 790.266411 146.791268 929.04573 146.791268 929.04573zM59.141172 213.236614c0-21.912524 14.608349-43.825048 29.216699-43.825048l80.345921 0c14.608349 0 29.216699 21.912524 29.216699 43.825048l0 73.041746c0 21.912524-14.608349 43.825048-29.216699 43.825048L88.35787 330.103408C73.749521 330.103408 59.141172 315.495059 59.141172 286.27836L59.141172 213.236614 59.141172 213.236614zM59.141172 213.236614" p-id="2569"></path><path d="M314.787284 1024l211.821065 0L526.608349 67.153121c0-29.216699-14.608349-58.433397-36.520873-58.433397L351.308158 8.719724c-21.912524 0-36.520873 29.216699-36.520873 58.433397L314.787284 1024 314.787284 1024 314.787284 1024zM395.133206 929.04573 373.220682 929.04573l0-138.779318 21.912524 0L395.133206 929.04573 395.133206 929.04573zM468.174952 929.04573 438.958254 929.04573l0-138.779318 29.216699 0L468.174952 929.04573 468.174952 929.04573zM351.308158 213.236614c0-21.912524 14.608349-43.825048 29.216699-43.825048l80.345921 0c14.608349 0 29.216699 21.912524 29.216699 43.825048l0 73.041746c0 21.912524-14.608349 43.825048-29.216699 43.825048L380.524856 330.103408c-14.608349 0-29.216699-21.912524-29.216699-43.825048L351.308158 213.236614 351.308158 213.236614zM351.308158 213.236614" p-id="2570"></path><path d="M818.775335 1024l204.51689-58.433397L745.733589 45.240597C738.429414 16.023898 716.51689-5.888626 694.604366 1.415549L563.129223 45.240597C548.520873 45.240597 533.912524 74.457296 548.520873 110.978169L818.775335 1024 818.775335 1024 818.775335 1024zM869.904558 907.133206l-21.912524 7.304175-36.520873-131.475144 21.912524-7.304175L869.904558 907.133206 869.904558 907.133206zM942.946304 892.524856l-29.216699 7.304175L877.208732 768.353887l29.216699-7.304175L942.946304 892.524856 942.946304 892.524856zM621.56262 235.149138c-7.304175-21.912524 0-43.825048 14.608349-51.129223l80.345921-21.912524c14.608349-7.304175 36.520873 7.304175 43.825048 36.520873l21.912524 73.041746c7.304175 21.912524 0 43.825048-14.608349 51.129223L687.300192 344.711758C672.691842 344.711758 650.779318 330.103408 643.475144 308.190884L621.56262 235.149138 621.56262 235.149138zM621.56262 235.149138" p-id="2571"></path></svg>