<svg id="svg" version="1.1" width="400" height="400" xmlns="http://www.w3.org/2000/svg" xmlns:xlink="http://www.w3.org/1999/xlink" style="display: block;"><g id="svgg"><path id="path0" d="M135.503 12.678 C 131.105 12.906,127.078 13.522,126.553 14.047 C 126.029 14.571,124.537 15.000,123.238 15.000 C 121.939 15.000,118.766 15.634,116.188 16.408 C 113.610 17.183,108.800 18.591,105.500 19.538 C 98.245 21.620,85.000 27.778,85.000 29.070 C 85.000 29.581,84.516 30.000,83.924 30.000 C 82.387 30.000,71.308 38.674,66.000 44.033 C 61.754 48.320,58.620 52.946,54.503 61.000 C 51.202 67.458,51.000 67.966,51.000 69.786 C 51.000 70.784,50.557 72.043,50.016 72.584 C 45.645 76.955,45.852 140.249,50.250 144.593 C 50.663 145.000,51.000 146.357,51.000 147.608 C 51.000 148.859,51.397 150.127,51.882 150.427 C 52.367 150.727,53.078 153.903,53.462 157.486 C 53.845 161.069,54.573 164.000,55.080 164.000 C 55.586 164.000,56.000 165.068,56.000 166.374 C 56.000 167.680,56.675 170.662,57.500 173.000 C 58.325 175.338,59.000 178.320,59.000 179.626 C 59.000 180.932,59.392 182.000,59.872 182.000 C 60.352 182.000,61.017 183.704,61.350 185.786 C 61.683 187.869,63.088 191.806,64.473 194.536 C 65.858 197.266,66.994 200.711,66.996 202.191 C 66.998 203.671,67.450 205.160,68.000 205.500 C 68.550 205.840,69.000 206.998,69.000 208.073 C 69.000 209.148,69.433 210.809,69.962 211.764 C 71.339 214.247,76.000 224.951,76.000 225.629 C 76.000 226.588,83.436 242.973,86.153 248.000 C 86.598 248.825,88.118 251.975,89.528 255.000 C 93.580 263.689,99.139 274.361,100.466 276.000 C 101.134 276.825,103.857 281.039,106.516 285.365 C 109.175 289.691,112.841 295.091,114.663 297.365 C 116.485 299.639,118.849 302.625,119.916 304.000 C 126.082 311.942,130.469 316.712,141.529 327.500 C 148.295 334.100,155.261 340.625,157.008 342.000 C 164.468 347.872,185.022 362.000,186.103 362.000 C 186.596 362.000,187.000 362.398,187.000 362.883 C 187.000 363.369,187.788 364.031,188.750 364.354 C 190.753 365.027,193.789 366.925,195.779 368.750 C 196.529 369.437,197.786 370.000,198.571 370.000 C 199.357 370.000,200.000 370.340,200.000 370.756 C 200.000 371.172,201.463 372.153,203.250 372.937 C 205.037 373.721,211.549 376.756,217.719 379.681 C 223.890 382.607,229.601 385.000,230.410 385.000 C 231.220 385.000,232.136 385.411,232.446 385.913 C 232.757 386.415,234.806 387.129,237.000 387.500 C 239.194 387.871,241.243 388.585,241.554 389.087 C 241.864 389.589,243.126 390.000,244.359 390.000 C 245.592 390.000,247.028 390.423,247.550 390.940 C 248.508 391.889,257.949 393.312,274.500 395.003 C 283.528 395.925,296.629 395.383,298.500 394.010 C 299.050 393.606,300.708 392.988,302.185 392.635 C 307.543 391.357,321.000 381.244,321.000 378.495 C 321.000 377.807,321.601 376.746,322.336 376.136 C 323.800 374.921,326.793 369.006,329.488 362.000 C 330.440 359.525,331.631 356.440,332.136 355.145 C 332.640 353.850,333.331 350.124,333.672 346.864 C 334.013 343.605,334.676 340.700,335.146 340.410 C 335.616 340.120,336.000 338.859,336.000 337.608 C 336.000 336.357,336.338 334.998,336.750 334.588 C 337.459 333.884,338.849 324.574,340.944 306.500 C 341.454 302.100,342.339 296.475,342.911 294.000 C 343.483 291.525,343.962 286.484,343.976 282.797 C 343.989 279.110,344.455 275.060,345.011 273.797 C 345.567 272.534,346.457 266.100,346.989 259.500 C 347.521 252.900,348.443 244.350,349.039 240.500 C 349.635 236.650,350.608 220.036,351.202 203.580 C 352.614 164.447,351.369 143.280,346.524 124.000 C 345.626 120.425,344.519 115.776,344.065 113.670 C 343.611 111.563,342.735 109.335,342.120 108.720 C 341.504 108.104,341.000 106.857,341.000 105.949 C 341.000 101.018,327.077 79.802,320.230 74.301 C 317.629 72.210,315.275 70.263,315.000 69.974 C 312.457 67.300,304.687 62.360,296.000 57.896 C 290.225 54.928,285.275 52.249,285.000 51.943 C 284.725 51.637,282.925 50.765,281.000 50.007 C 279.075 49.248,273.592 46.686,268.816 44.313 C 264.040 41.941,259.666 40.000,259.096 40.000 C 258.526 40.000,255.459 38.696,252.280 37.102 C 243.702 32.800,237.259 30.000,235.941 30.000 C 235.298 30.000,233.136 29.161,231.136 28.136 C 225.147 25.067,220.693 23.308,216.996 22.553 C 215.073 22.160,211.025 21.001,208.000 19.978 C 199.801 17.204,184.867 14.340,175.000 13.649 C 162.974 12.806,142.664 12.307,135.503 12.678 M149.565 26.894 C 148.999 27.811,147.248 28.149,133.682 29.959 C 129.382 30.533,125.024 31.452,123.997 32.001 C 122.971 32.551,120.778 33.000,119.125 33.000 C 117.471 33.000,115.840 33.450,115.500 34.000 C 115.160 34.550,113.899 35.000,112.699 35.000 C 109.842 35.000,92.276 43.759,86.127 48.250 C 82.882 50.620,81.268 50.466,83.500 48.000 C 84.495 46.900,85.845 46.000,86.500 46.000 C 87.155 46.000,88.495 45.111,89.479 44.024 C 92.000 41.238,110.634 32.226,116.556 30.929 C 119.275 30.333,125.268 29.225,129.874 28.466 C 134.479 27.707,138.491 26.842,138.790 26.543 C 139.723 25.611,150.149 25.950,149.565 26.894 M159.000 27.000 C 159.000 28.270,155.965 28.270,154.000 27.000 C 152.862 26.264,153.284 26.027,155.750 26.015 C 157.537 26.007,159.000 26.450,159.000 27.000 M192.500 31.052 C 196.350 32.149,200.973 33.322,202.774 33.658 C 204.575 33.994,206.289 34.659,206.583 35.135 C 206.877 35.611,208.190 36.000,209.500 36.000 C 210.810 36.000,212.160 36.450,212.500 37.000 C 212.840 37.550,213.811 38.000,214.658 38.000 C 216.373 38.000,223.220 41.003,224.000 42.097 C 224.275 42.483,225.625 43.007,227.000 43.263 L 229.500 43.728 226.919 43.864 C 225.500 43.939,222.125 42.870,219.419 41.489 C 216.714 40.108,212.700 38.696,210.500 38.352 C 208.300 38.008,206.050 37.389,205.500 36.977 C 204.950 36.564,202.492 35.895,200.038 35.489 C 197.585 35.084,194.660 34.288,193.538 33.720 C 192.417 33.152,190.719 32.308,189.764 31.844 C 188.809 31.380,186.446 31.000,184.514 31.000 C 182.581 31.000,181.000 30.550,181.000 30.000 C 181.000 28.495,184.719 28.836,192.500 31.052 M81.000 51.965 C 81.000 52.495,80.124 53.399,79.052 53.972 C 77.981 54.545,76.309 56.361,75.337 58.007 C 73.302 61.451,71.342 62.146,73.242 58.750 C 76.084 53.667,81.000 49.368,81.000 51.965 M188.635 63.500 C 190.121 65.505,189.886 75.715,188.105 86.500 C 187.226 91.825,185.148 92.698,170.982 93.693 L 159.500 94.500 159.197 99.218 C 158.840 104.756,160.607 105.742,168.810 104.585 C 189.928 101.606,189.429 101.011,191.618 131.765 C 192.955 150.540,169.211 172.920,156.671 164.704 C 151.672 161.428,154.484 153.988,160.715 154.005 C 174.026 154.042,182.855 143.050,182.956 126.315 C 183.038 112.891,181.880 112.128,164.291 114.023 C 148.947 115.675,149.046 115.774,149.443 99.239 C 149.829 83.196,148.719 84.357,163.671 84.357 C 177.872 84.357,179.000 83.816,179.000 77.009 C 179.000 71.399,177.933 70.929,166.857 71.655 C 153.986 72.498,147.925 68.859,153.750 63.785 C 157.574 60.455,186.205 60.220,188.635 63.500 M69.063 69.386 C 67.379 72.414,66.000 76.240,66.000 77.887 C 66.000 79.534,65.550 81.160,65.000 81.500 C 64.450 81.840,64.000 83.415,64.000 85.000 C 64.000 86.585,63.550 88.160,63.000 88.500 C 62.450 88.840,62.000 92.729,62.000 97.142 C 62.000 103.122,61.681 105.058,60.750 104.741 C 59.293 104.246,59.357 99.812,60.976 89.000 C 62.017 82.049,62.827 79.265,65.117 74.764 C 65.603 73.809,66.000 72.378,66.000 71.585 C 66.000 70.792,66.563 69.548,67.250 68.821 C 67.938 68.095,69.161 66.221,69.969 64.657 C 70.777 63.093,71.593 62.278,71.782 62.847 C 71.972 63.415,70.748 66.358,69.063 69.386 M280.750 66.455 C 282.538 66.842,284.000 67.573,284.000 68.079 C 284.000 68.586,284.675 69.000,285.500 69.000 C 286.325 69.000,287.000 69.450,287.000 70.000 C 287.000 70.550,287.513 71.000,288.140 71.000 C 289.903 71.000,298.000 75.251,298.000 76.177 C 298.000 76.630,298.655 77.000,299.455 77.000 C 300.255 77.000,302.000 78.013,303.333 79.250 C 304.666 80.487,306.937 82.309,308.378 83.297 C 310.932 85.047,311.864 87.000,310.146 87.000 C 309.676 87.000,308.078 85.875,306.595 84.500 C 305.111 83.125,303.665 82.000,303.382 82.000 C 303.098 82.000,301.434 80.938,299.683 79.640 C 295.336 76.417,277.215 66.589,273.750 65.575 C 272.788 65.293,272.000 64.343,272.000 63.463 C 272.000 62.081,272.373 62.127,274.750 63.808 C 276.262 64.877,278.962 66.068,280.750 66.455 M116.000 64.927 C 116.825 64.902,121.631 64.652,126.681 64.372 C 137.614 63.764,140.744 65.459,139.570 71.349 C 139.224 73.082,138.671 78.240,138.342 82.811 C 137.587 93.282,137.017 93.727,123.188 94.633 C 111.667 95.388,110.265 96.056,109.817 101.000 L 109.500 104.500 120.830 104.530 C 136.120 104.571,138.067 107.073,138.243 126.899 C 138.353 139.427,136.555 143.336,124.750 156.224 C 122.688 158.476,121.000 160.641,121.000 161.036 C 121.000 161.737,113.702 165.104,109.276 166.445 C 105.581 167.564,100.000 164.313,100.000 161.041 C 100.000 157.640,102.093 155.711,108.532 153.180 C 120.195 148.594,127.893 138.369,128.541 126.603 C 129.225 114.169,128.677 113.711,114.631 114.969 C 100.305 116.253,99.626 115.904,100.441 107.669 C 100.777 104.276,101.300 98.264,101.603 94.309 C 102.282 85.441,103.172 84.541,110.220 85.589 C 113.124 86.020,115.950 86.213,116.500 86.018 C 117.050 85.823,119.750 85.401,122.500 85.082 L 127.500 84.500 127.802 79.250 C 128.019 75.482,127.737 73.975,126.802 73.912 C 126.086 73.863,120.864 73.899,115.198 73.991 C 103.907 74.174,102.000 73.464,102.000 69.078 C 102.000 64.905,103.806 63.783,109.500 64.417 C 112.250 64.723,115.175 64.952,116.000 64.927 M316.860 91.975 C 324.493 101.474,337.234 134.735,332.000 131.500 C 331.450 131.160,331.000 129.810,331.000 128.500 C 331.000 127.190,330.601 125.871,330.113 125.570 C 329.626 125.269,328.920 123.387,328.545 121.388 C 328.170 119.389,327.461 117.022,326.971 116.127 C 326.480 115.232,324.859 111.800,323.369 108.500 C 321.880 105.200,319.514 100.700,318.113 98.500 C 311.420 87.991,310.717 84.332,316.860 91.975 M61.840 115.809 C 61.752 119.489,61.511 120.925,61.304 119.000 C 61.097 117.075,60.451 114.290,59.868 112.810 C 58.764 110.010,59.457 107.546,61.069 108.543 C 61.581 108.859,61.928 112.129,61.840 115.809 M116.615 122.096 C 121.546 126.188,115.496 130.500,104.825 130.500 C 95.136 130.500,91.416 128.066,94.323 123.630 C 96.661 120.062,112.824 118.949,116.615 122.096 M170.629 122.287 C 179.041 126.693,174.472 131.456,162.501 130.759 C 150.357 130.053,145.364 126.577,149.660 121.818 C 151.955 119.276,165.455 119.577,170.629 122.287 M64.014 127.750 C 64.021 130.363,64.302 133.625,64.639 135.000 C 65.235 137.439,65.211 137.451,63.657 135.500 C 61.882 133.272,61.342 123.000,63.000 123.000 C 63.550 123.000,64.006 125.138,64.014 127.750 M333.707 138.238 C 333.468 139.482,333.263 138.700,333.252 136.500 C 333.241 134.300,333.437 133.282,333.687 134.238 C 333.937 135.194,333.946 136.994,333.707 138.238 M115.429 135.571 C 117.967 138.110,114.862 144.000,110.986 144.000 C 109.959 144.000,108.869 144.403,108.564 144.896 C 107.299 146.943,94.936 148.188,92.397 146.524 C 88.787 144.159,90.900 138.000,95.321 138.000 C 96.048 138.000,98.411 137.118,100.571 136.040 C 105.411 133.625,113.236 133.378,115.429 135.571 M171.824 136.680 C 178.502 140.884,160.941 148.712,149.603 146.585 C 146.597 146.021,143.535 139.086,146.250 138.991 C 146.387 138.986,149.650 137.883,153.500 136.538 C 161.097 133.886,167.464 133.935,171.824 136.680 M69.000 150.500 C 69.000 151.260,68.550 152.160,68.000 152.500 C 67.431 152.852,67.000 151.991,67.000 150.500 C 67.000 149.009,67.431 148.148,68.000 148.500 C 68.550 148.840,69.000 149.740,69.000 150.500 M74.985 176.941 C 74.993 177.184,74.339 176.509,73.532 175.441 C 72.724 174.374,72.069 172.375,72.076 171.000 C 72.086 168.889,74.907 174.650,74.985 176.941 M338.226 190.931 C 337.949 198.640,337.346 204.714,336.887 204.430 C 335.978 203.868,335.950 174.447,336.857 172.000 C 338.073 168.717,338.709 177.512,338.226 190.931 M78.968 185.250 C 78.986 186.213,78.598 187.000,78.107 187.000 C 76.995 187.000,76.000 184.511,76.000 181.727 C 76.000 178.949,78.917 182.411,78.968 185.250 M82.575 195.500 C 83.256 197.150,84.109 199.823,84.473 201.439 C 84.836 203.055,85.947 205.530,86.942 206.939 C 87.937 208.348,89.067 210.957,89.453 212.739 C 89.838 214.520,90.569 216.234,91.077 216.548 C 91.585 216.861,92.000 217.811,92.000 218.658 C 92.000 220.330,93.385 223.709,98.494 234.500 C 100.316 238.350,102.282 242.625,102.862 244.000 C 104.613 248.148,112.047 261.390,113.573 263.079 C 114.358 263.947,115.000 265.216,115.000 265.899 C 115.000 266.581,116.350 269.102,118.000 271.500 C 119.650 273.898,121.000 276.103,121.000 276.399 C 121.000 276.695,122.912 279.663,125.250 282.995 C 127.588 286.327,129.950 289.846,130.500 290.816 C 132.073 293.589,139.322 302.367,141.197 303.770 C 142.130 304.468,143.898 306.825,145.125 309.009 C 146.352 311.192,148.176 313.238,149.178 313.557 C 150.180 313.875,151.000 314.554,151.000 315.067 C 151.000 315.580,151.576 316.000,152.280 316.000 C 152.984 316.000,155.005 317.532,156.772 319.406 C 158.539 321.279,163.396 325.379,167.567 328.518 C 171.737 331.656,175.388 334.849,175.681 335.612 C 175.974 336.375,176.841 337.000,177.607 337.000 C 178.373 337.000,179.856 337.856,180.901 338.901 C 181.947 339.947,183.859 341.135,185.151 341.542 C 186.443 341.948,188.625 343.149,190.000 344.211 C 196.616 349.318,230.496 367.633,234.896 368.480 C 236.876 368.861,242.758 371.249,246.236 373.084 C 247.191 373.588,249.004 374.000,250.264 374.000 C 251.524 374.000,253.443 374.608,254.527 375.352 C 264.931 382.481,308.000 376.149,308.000 367.490 C 308.000 366.805,308.675 365.685,309.500 365.000 C 310.325 364.315,311.010 363.023,311.022 362.128 C 311.034 361.232,311.924 359.375,313.000 358.000 C 314.076 356.625,314.968 354.600,314.984 353.500 C 315.000 352.400,315.685 350.211,316.506 348.636 C 317.328 347.060,318.000 344.443,318.000 342.820 C 318.000 341.197,318.413 339.097,318.918 338.154 C 319.422 337.211,320.367 333.078,321.018 328.970 C 321.668 324.861,322.868 317.450,323.684 312.500 C 324.500 307.550,325.393 300.800,325.668 297.500 C 325.943 294.200,326.581 291.072,327.084 290.550 C 327.588 290.027,328.000 286.765,328.000 283.300 C 328.000 279.800,328.441 277.000,328.992 277.000 C 330.011 277.000,329.805 281.626,328.033 298.500 C 326.596 312.191,324.958 323.277,324.043 325.500 C 322.676 328.823,321.207 335.183,320.462 341.000 C 320.075 344.025,318.959 348.300,317.981 350.500 C 317.004 352.700,315.397 356.858,314.409 359.739 C 307.455 380.023,281.547 387.937,254.500 378.040 C 253.400 377.638,248.000 375.834,242.500 374.031 C 237.000 372.229,232.072 370.360,231.550 369.877 C 231.027 369.395,229.969 369.000,229.197 369.000 C 227.776 369.000,211.108 360.878,205.384 357.396 C 186.374 345.833,182.726 343.451,182.291 342.316 C 182.013 341.592,181.351 341.000,180.818 341.000 C 179.971 341.000,166.362 331.248,163.397 328.516 C 162.790 327.957,160.090 325.700,157.397 323.500 C 148.701 316.397,126.000 290.866,126.000 288.188 C 126.000 287.727,124.875 286.292,123.500 285.000 C 122.125 283.708,121.000 282.289,121.000 281.845 C 121.000 280.626,114.420 270.594,112.666 269.138 C 111.820 268.436,110.819 266.430,110.440 264.681 C 110.061 262.931,108.848 260.223,107.745 258.662 C 105.686 255.749,93.000 230.618,93.000 229.452 C 93.000 229.094,92.325 227.272,91.500 225.401 C 90.675 223.531,89.325 220.469,88.500 218.599 C 87.675 216.728,87.000 214.505,87.000 213.658 C 87.000 212.811,86.550 211.840,86.000 211.500 C 85.450 211.160,85.000 210.189,85.000 209.342 C 85.000 208.495,84.374 206.384,83.609 204.651 C 80.533 197.680,79.003 192.823,79.068 190.230 L 79.135 187.500 80.237 190.000 C 80.843 191.375,81.895 193.850,82.575 195.500 M257.487 238.615 C 258.840 242.570,259.077 242.670,268.954 243.442 C 287.607 244.902,290.000 247.059,290.000 262.417 C 290.000 280.172,284.911 284.547,265.343 283.617 C 259.380 283.334,253.600 283.061,252.500 283.010 C 251.400 282.960,248.802 283.212,246.728 283.571 C 244.499 283.957,241.743 283.722,239.993 282.997 C 237.542 281.982,236.335 282.049,232.995 283.385 C 230.776 284.273,227.619 285.000,225.980 285.000 C 224.341 285.000,223.000 285.360,223.000 285.800 C 223.000 287.438,225.485 289.000,228.089 289.000 C 232.813 289.000,235.915 292.332,233.586 294.905 C 232.543 296.057,230.830 297.000,229.779 297.000 C 226.513 297.000,224.011 298.860,224.714 300.765 C 225.649 303.299,227.170 304.065,230.063 303.460 C 233.235 302.796,282.925 302.620,288.720 303.252 C 300.142 304.499,307.487 317.257,302.500 327.187 C 301.125 329.924,300.000 333.616,300.000 335.391 C 300.000 346.017,283.310 350.093,269.631 342.808 C 260.518 337.955,264.423 331.636,274.870 334.327 C 286.738 337.384,292.000 334.025,292.000 323.391 L 292.000 317.004 287.250 314.020 C 280.800 309.969,277.369 309.489,269.313 311.512 C 263.441 312.986,261.598 313.053,255.973 311.993 C 249.351 310.746,244.907 310.944,235.000 312.927 C 212.990 317.335,214.081 318.458,215.143 292.500 C 215.435 285.350,215.320 272.761,214.886 264.525 C 214.008 247.846,214.124 247.442,220.416 245.167 C 224.252 243.779,229.499 245.530,230.673 248.590 C 231.325 250.289,228.357 254.000,226.345 254.000 C 225.577 254.000,225.000 255.072,225.000 256.500 C 225.000 257.967,225.574 259.000,226.389 259.000 C 231.985 259.000,232.928 264.789,227.706 267.089 C 224.334 268.574,223.051 271.451,224.925 273.325 C 226.335 274.735,271.077 274.381,275.633 272.924 C 284.781 269.999,280.809 253.719,270.861 253.367 C 239.149 252.244,236.614 252.043,235.091 250.520 C 233.402 248.830,234.328 246.230,237.067 244.978 C 243.029 242.252,244.530 241.188,244.846 239.466 C 246.156 232.321,255.127 231.717,257.487 238.615 M270.445 259.954 C 272.440 261.610,272.435 264.394,270.435 266.054 C 268.851 267.368,242.375 267.593,237.250 266.335 C 234.737 265.719,234.128 261.969,236.254 260.204 C 239.017 257.911,267.730 257.701,270.445 259.954 M303.037 289.270 C 308.104 294.709,303.430 298.547,293.014 297.501 C 289.152 297.114,285.742 296.392,285.437 295.898 C 284.671 294.658,279.632 294.768,278.348 296.052 C 276.822 297.578,239.258 297.459,237.407 295.923 C 235.441 294.291,235.650 290.363,237.750 289.469 C 244.116 286.761,300.539 286.589,303.037 289.270 M281.099 318.106 C 285.748 323.083,284.298 328.000,278.182 328.000 C 274.180 328.000,267.299 318.034,269.667 315.667 C 271.656 313.678,278.283 315.092,281.099 318.106 M239.913 321.802 C 242.330 329.256,236.265 337.955,231.443 333.952 C 228.779 331.742,230.095 322.194,233.463 319.286 C 236.712 316.481,238.402 317.141,239.913 321.802 M256.288 319.778 C 261.635 325.359,261.953 331.928,256.953 333.515 C 251.887 335.123,246.945 324.708,250.035 318.934 C 251.456 316.279,253.154 316.508,256.288 319.778 M221.027 321.532 C 224.031 325.152,215.611 339.000,210.407 339.000 C 203.080 339.000,204.135 330.451,212.259 323.983 C 217.741 319.618,219.119 319.233,221.027 321.532 " stroke="none" fill="#000000" fill-rule="evenodd"></path></g></svg>