<?xml version="1.0" standalone="no"?><!DOCTYPE svg PUBLIC "-//W3C//DTD SVG 1.1//EN" "http://www.w3.org/Graphics/SVG/1.1/DTD/svg11.dtd"><svg t="1519801371459" class="icon" style="" viewBox="0 0 1028 1024" version="1.1" xmlns="http://www.w3.org/2000/svg" p-id="1531" xmlns:xlink="http://www.w3.org/1999/xlink" width="200.78125" height="200"><defs><style type="text/css"></style></defs><path d="M470.791621 216.202867 470.791621 149.027563c-172.171996 0-316.683572 120.238148-353.375965 281.120176L19.192944 430.14774l128.141125 163.140022 128.705623-163.140022L186.284454 430.14774C221.84785 306.522602 335.876516 216.202867 470.791621 216.202867z" p-id="1532"></path><path d="M1027.951488 593.287762l-128.705623-163.140022-128.141125 163.140022 87.497244 0c-35.563396 123.625138-149.592062 214.509372-285.071665 214.509372L573.53032 874.972437c172.171996 0 316.683572-120.238148 353.940463-281.684675L1027.951488 593.287762z" p-id="1533"></path><path d="M477.001103 628.286659 204.9129 628.286659c-8.467475 0-15.241455 6.77398-15.241455 15.241455l0 272.088203c0 8.467475 6.77398 15.241455 15.241455 15.241455l272.088203 0c8.467475 0 15.241455-6.77398 15.241455-15.241455L492.242558 643.528115C492.242558 635.060639 485.468578 628.286659 477.001103 628.286659zM429.583241 859.730981c0 5.080485-3.951488 9.031974-9.031974 9.031974L260.798236 868.762955c-5.080485 0-9.031974-3.951488-9.031974-9.031974L251.766262 699.977949c0-5.080485 3.951488-9.031974 9.031974-9.031974l159.753032 0c5.080485 0 9.031974 3.951488 9.031974 9.031974L429.583241 859.730981 429.583241 859.730981z" p-id="1534"></path><path d="M845.054024 90.319735l-272.088203 0c-8.467475 0-15.241455 6.77398-15.241455 15.241455L557.724366 378.213892c0 8.467475 6.77398 15.241455 15.241455 15.241455l272.088203 0c8.467475 0 15.241455-6.77398 15.241455-15.241455L860.29548 106.125689C860.29548 97.658214 853.521499 90.319735 845.054024 90.319735zM797.636163 321.764057c0 5.080485-3.951488 9.031974-9.031974 9.031974l-159.753032 0c-5.080485 0-9.031974-3.951488-9.031974-9.031974L619.819184 162.011025c0-5.080485 3.951488-9.031974 9.031974-9.031974l159.753032 0c5.080485 0 9.031974 3.951488 9.031974 9.031974L797.636163 321.764057z" p-id="1535"></path></svg>