<?xml version="1.0" standalone="no"?><!DOCTYPE svg PUBLIC "-//W3C//DTD SVG 1.1//EN" "http://www.w3.org/Graphics/SVG/1.1/DTD/svg11.dtd"><svg t="1519738669272" class="icon" style="" viewBox="0 0 2048 1024" version="1.1" xmlns="http://www.w3.org/2000/svg" p-id="2419" xmlns:xlink="http://www.w3.org/1999/xlink" width="400" height="200"><defs><style type="text/css"></style></defs><path d="M1461.6 185.008c0.256-2.976 0.448-5.968 0.448-8.992a102 102 0 0 0-204 0c0 3.04 0.192 6.032 0.448 9.008H1461.6zM1034.928 880h-512A111.904 111.904 0 0 0 624 944h512a111.904 111.904 0 0 1-101.072-64z" fill="" p-id="2420"></path><path d="M1276.8 780.32l-16 12.896a16 16 0 0 0-3.808 20.512l12 20.656a16 16 0 0 0 19.616 6.88l19.088-7.392a83.968 83.968 0 0 0 21.392 12.352l3.2 20.24a16 16 0 0 0 15.808 13.552h23.888a16 16 0 0 0 15.808-13.552l3.2-20.24a83.968 83.968 0 0 0 21.392-12.352l19.088 7.392a16 16 0 0 0 19.616-6.88l12-20.656a16 16 0 0 0-3.808-20.512l-16-12.896a76.272 76.272 0 0 0 0-24.64l16-12.896a16 16 0 0 0 3.808-20.512l-12-20.656a16 16 0 0 0-19.616-6.88l-19.088 7.392a83.952 83.952 0 0 0-21.392-12.352l-3.2-20.24a16 16 0 0 0-15.84-13.536h-23.904a16 16 0 0 0-15.808 13.552l-3.2 20.24a83.952 83.952 0 0 0-21.392 12.352l-19.088-7.392a16 16 0 0 0-19.616 6.88l-12 20.656a16 16 0 0 0 3.808 20.512l16 12.896a76.272 76.272 0 0 0 0.048 24.624z m41.808-12.32a41.6 41.6 0 1 1 41.6 41.6 41.6 41.6 0 0 1-41.6-41.6z" fill="" p-id="2421"></path><path d="M752 688l368 0 0 32-368 0 0-32Z" fill="" p-id="2422"></path><path d="M752 624l368 0 0 32-368 0 0-32Z" fill="" p-id="2423"></path><path d="M752 560l368 0 0 32-368 0 0-32Z" fill="" p-id="2424"></path><path d="M752 496l368 0 0 32-368 0 0-32Z" fill="" p-id="2425"></path><path d="M752 432l368 0 0 32-368 0 0-32Z" fill="" p-id="2426"></path><path d="M768.656 320.928l-32.544-44.224a13.2 13.2 0 0 1-2.736-8 10.832 10.832 0 0 1 11.088-10.672 12.8 12.8 0 0 1 10.944 6.768l24.48 35.296 24.912-35.488a12.8 12.8 0 0 1 10.672-6.624 10.272 10.272 0 0 1 10.8 10.8 13.776 13.776 0 0 1-2.88 7.776l-32.56 43.936v29.104a11.088 11.088 0 1 1-22.192 0v-28.672zM824.96 345.6l35.2-79.36a13.712 13.712 0 0 1 12.976-8.784h1.296a13.504 13.504 0 0 1 12.8 8.784l35.2 79.36a10.816 10.816 0 0 1 1.136 4.464 10.512 10.512 0 0 1-10.512 10.672 11.312 11.312 0 0 1-10.656-7.648l-6.768-15.84H851.2l-7.056 16.576a10.912 10.912 0 0 1-10.24 6.912 10.208 10.208 0 0 1-10.224-10.368 11.776 11.776 0 0 1 1.28-4.768z m62.4-27.952l-13.984-33.28-13.968 33.28h27.952zM940.8 269.504a11.008 11.008 0 0 1 11.088-11.088h2.512a11.376 11.376 0 0 1 10.08 5.76l26.8 43.648 26.944-43.824a10.848 10.848 0 0 1 9.936-5.616h2.448a11.008 11.008 0 0 1 11.088 11.088v80.128a11.024 11.024 0 1 1-22.048 0v-50.272l-19.44 29.952a10.368 10.368 0 0 1-18.432 0l-19.2-29.52v50.128a10.88 10.88 0 0 1-21.744 0v-80.384zM1065.84 269.216a11.088 11.088 0 0 1 22.192 0v70.4h41.04a10.08 10.08 0 1 1 0 20.16h-52.128a11.008 11.008 0 0 1-11.088-11.088v-79.472z" fill="" p-id="2427"></path><path d="M1616 304m-16 0a16 16 0 1 0 32 0 16 16 0 1 0-32 0Z" fill="" p-id="2428"></path><path d="M480 208m-16 0a16 16 0 1 0 32 0 16 16 0 1 0-32 0Z" fill="" p-id="2429"></path><path d="M320 512m-16 0a16 16 0 1 0 32 0 16 16 0 1 0-32 0Z" fill="" p-id="2430"></path><path d="M416 592a48 48 0 1 1 48 48 48 48 0 0 1-48-48z m32 0a16 16 0 1 0 16-16 16 16 0 0 0-16 16zM250.72 376a16 16 0 0 1 0-16l55.424-96a16.64 16.64 0 0 1 27.712 0l55.424 96a16 16 0 0 1-13.856 24h-110.848a16 16 0 0 1-13.856-8z m90.08-36l-13.856-24a8 8 0 0 0-13.856 0l-13.888 24a8 8 0 0 0 6.928 12h27.696a8 8 0 0 0 6.976-12zM1664 688v-96a16 16 0 0 1 16-16h96a16 16 0 0 1 16 16v96a16 16 0 0 1-16 16h-96a16 16 0 0 1-16-16z m96-32v-32a16 16 0 0 0-16-16h-32a16 16 0 0 0-16 16v32a16 16 0 0 0 16 16h32a16 16 0 0 0 16-16zM1488 448h24a8 8 0 0 0 8-8V416a16 16 0 0 1 32 0v24a8 8 0 0 0 8 8H1584a16 16 0 0 1 0 32h-24a8 8 0 0 0-8 8V512a16 16 0 0 1-32 0v-24a8 8 0 0 0-8-8H1488a16 16 0 0 1 0-32z" fill="" p-id="2431"></path><path d="M1361.744 576a190.08 190.08 0 0 0-86.4 19.888 7.904 7.904 0 0 1-11.344-7.184v-364.8a16 16 0 0 1 16-16h192a16 16 0 0 0 16-16 128 128 0 0 0-128-128H736a128 128 0 0 0-128 128V800a16 16 0 0 1-16 16h-80a16 16 0 0 0-16 16 128 128 0 0 0 128 128h512a127.328 127.328 0 0 0 91.328-38.576 12.8 12.8 0 0 1 16.816-0.608 191.728 191.728 0 0 0 307.76-159.36A193.856 193.856 0 0 0 1361.744 576zM1360 96a96.176 96.176 0 0 1 92.272 69.456 8.112 8.112 0 0 1-7.632 10.544H1275.488a8.112 8.112 0 0 1-7.632-10.544A96 96 0 0 1 1360 96zM1032.496 928H624a96.176 96.176 0 0 1-92.272-69.456 8.112 8.112 0 0 1 7.632-10.544h456.304a15.744 15.744 0 0 1 15.456 12.08 127.632 127.632 0 0 0 27.28 54.624 8 8 0 0 1-5.904 13.296z m87.264-1.344A98.384 98.384 0 0 1 1040 828.272a12.352 12.352 0 0 0-12.432-12.272H656a16 16 0 0 1-16-16V192a96 96 0 0 1 96-96h520.496a8 8 0 0 1 5.936 13.248A127.456 127.456 0 0 0 1232 192v426.48a16 16 0 0 1-4.992 11.456 191.28 191.28 0 0 0-21.456 252 13.008 13.008 0 0 1-0.944 16.88 95.52 95.52 0 0 1-84.864 27.84zM1360 928a160 160 0 1 1 160-160 160.192 160.192 0 0 1-160 160z" fill="" p-id="2432"></path></svg>