<svg id="svg" version="1.1" width="400" height="400" xmlns="http://www.w3.org/2000/svg" xmlns:xlink="http://www.w3.org/1999/xlink" style="display: block;"><g id="svgg"><path id="path0" d="M25.459 8.909 C 17.703 10.195,10.748 16.230,8.070 24.000 C 6.370 28.931,5.091 121.208,4.765 262.500 L 4.500 377.500 7.230 382.145 C 10.287 387.344,14.277 391.031,20.384 394.298 L 24.500 396.500 201.000 396.500 L 377.500 396.500 381.616 394.298 C 387.560 391.118,391.935 387.172,395.168 382.074 L 398.000 377.608 397.949 275.054 C 397.873 124.639,396.646 28.471,394.745 23.927 C 392.671 18.971,387.461 13.295,382.595 10.691 L 378.500 8.500 204.000 8.370 C 108.025 8.298,27.681 8.541,25.459 8.909 M146.500 107.921 C 191.922 119.906,216.870 161.943,212.016 218.313 C 207.863 266.536,182.428 297.360,140.814 304.598 C 71.713 316.617,26.465 273.768,29.304 199.000 C 31.272 147.157,56.382 115.097,101.740 106.518 C 112.916 104.404,135.901 105.125,146.500 107.921 M108.251 134.483 C 46.829 151.755,53.840 277.083,116.381 279.818 C 149.472 281.265,171.100 258.114,175.140 216.919 C 180.382 163.469,147.831 123.352,108.251 134.483 M331.904 162.579 C 348.034 166.265,357.716 176.050,363.140 194.148 C 365.236 201.143,365.363 203.663,365.751 246.098 C 366.282 304.182,366.936 302.000,349.000 302.000 C 331.939 302.000,332.909 304.525,331.910 257.500 C 330.914 210.551,330.271 206.840,321.448 197.074 C 310.440 184.890,287.034 185.580,276.530 198.398 C 268.324 208.413,267.211 215.414,266.208 263.337 L 265.500 297.174 262.694 299.587 C 258.495 303.198,240.549 303.237,236.372 299.643 C 232.797 296.569,232.175 285.014,232.079 220.000 C 231.993 160.942,231.433 162.984,247.700 163.015 C 257.548 163.033,259.868 164.204,263.070 170.770 C 267.569 179.994,268.652 180.035,280.027 171.402 C 294.764 160.217,310.130 157.604,331.904 162.579 " stroke="none" fill="#000000" fill-rule="evenodd"></path></g></svg>