<svg id="svg" version="1.1" width="400" height="400" xmlns="http://www.w3.org/2000/svg" xmlns:xlink="http://www.w3.org/1999/xlink" style="display: block;"><g id="svgg"><path id="path0" d="M0.000 200.000 L 0.000 400.000 200.000 400.000 L 400.000 400.000 400.000 200.000 L 400.000 0.000 200.000 0.000 L 0.000 0.000 0.000 200.000 M385.119 12.815 C 389.964 17.144,390.042 20.423,389.759 209.731 L 389.500 382.962 386.231 386.231 L 382.962 389.500 209.731 389.759 C 20.423 390.042,17.144 389.964,12.815 385.119 L 10.000 381.968 10.000 200.435 C 10.000 40.356,10.179 18.555,11.513 15.976 C 14.785 9.647,0.894 10.084,200.234 10.040 L 381.968 10.000 385.119 12.815 M226.500 57.517 C 225.950 57.714,217.793 58.370,208.374 58.973 C 182.966 60.602,160.956 64.831,153.953 69.431 C 146.843 74.100,140.397 93.690,138.961 115.000 C 138.460 122.425,136.936 135.700,135.573 144.500 C 134.210 153.300,132.412 165.000,131.576 170.500 C 130.741 176.000,128.975 183.200,127.652 186.500 C 125.835 191.032,124.968 195.991,124.105 206.772 C 122.884 222.034,120.998 232.693,118.448 238.748 C 117.580 240.812,115.781 249.025,114.451 257.000 C 113.122 264.975,111.599 273.075,111.068 275.000 C 110.536 276.925,109.613 283.000,109.015 288.500 C 107.728 300.348,106.985 303.521,103.618 311.553 C 98.551 323.637,99.508 340.062,105.411 342.328 C 109.814 344.017,153.151 333.979,162.000 329.220 C 174.156 322.682,175.480 319.893,177.060 297.500 C 178.642 275.083,179.852 271.293,186.878 266.744 C 194.500 261.809,194.935 262.157,196.545 274.500 C 196.903 277.250,198.027 283.100,199.043 287.500 C 200.058 291.900,201.416 298.200,202.059 301.500 C 202.703 304.800,204.275 309.300,205.554 311.500 C 206.832 313.700,208.633 318.875,209.556 323.000 C 213.458 340.442,215.443 340.908,241.953 330.604 C 249.404 327.708,258.190 324.757,261.478 324.046 C 278.173 320.439,282.945 294.789,269.961 278.451 C 268.134 276.152,265.689 270.443,263.427 263.197 C 261.438 256.828,258.733 250.030,257.416 248.091 C 256.098 246.152,253.634 240.404,251.939 235.318 C 250.245 230.232,247.765 224.460,246.429 222.491 C 244.497 219.644,244.000 217.631,244.000 212.652 L 244.000 206.394 250.171 202.042 C 265.234 191.419,284.813 167.349,289.854 153.256 C 292.156 146.820,293.848 143.674,295.638 142.502 C 299.334 140.080,301.116 134.800,301.694 124.564 C 304.116 81.647,294.043 64.353,263.162 58.412 C 256.666 57.162,229.347 56.495,226.500 57.517 M238.164 124.194 C 246.796 128.182,247.342 130.201,241.362 136.017 C 238.688 138.617,235.092 142.265,233.371 144.122 C 215.642 163.263,197.151 166.286,205.445 148.688 C 206.790 145.835,208.336 140.712,208.881 137.304 C 211.372 121.723,222.263 116.847,238.164 124.194 " stroke="none" fill="#000000" fill-rule="evenodd"></path></g></svg>