<svg id="svg" version="1.1" width="400" height="400" xmlns="http://www.w3.org/2000/svg" xmlns:xlink="http://www.w3.org/1999/xlink" style="display: block;"><g id="svgg"><path id="path0" d="M0.000 200.000 L 0.000 400.000 200.000 400.000 L 400.000 400.000 400.000 200.000 L 400.000 0.000 200.000 0.000 L 0.000 0.000 0.000 200.000 M330.182 49.235 C 333.308 49.948,336.195 50.862,336.599 51.266 C 337.003 51.670,338.164 52.000,339.180 52.000 C 340.196 52.000,341.809 52.412,342.764 52.917 C 343.719 53.421,346.018 54.398,347.873 55.089 L 351.247 56.345 350.708 62.288 C 350.411 65.557,349.681 68.719,349.084 69.316 C 348.488 69.912,348.000 71.345,348.000 72.500 C 348.000 73.655,347.630 75.027,347.177 75.550 C 346.724 76.072,345.506 79.200,344.471 82.500 C 343.436 85.800,342.232 88.927,341.795 89.450 C 341.358 89.973,340.986 91.098,340.968 91.950 C 340.902 95.182,338.129 97.562,335.988 96.225 C 324.815 89.247,304.000 91.621,304.000 99.873 C 304.000 100.823,303.442 102.158,302.761 102.839 C 301.877 103.723,301.414 110.233,301.149 125.539 L 300.777 147.000 319.888 147.000 L 339.000 147.000 339.000 168.500 L 339.000 190.000 320.137 190.000 L 301.274 190.000 301.387 266.750 L 301.500 343.500 272.250 343.765 C 249.226 343.974,242.982 343.761,242.914 342.765 C 242.867 342.069,242.902 307.413,242.993 265.750 L 243.158 190.000 231.079 190.000 L 219.000 190.000 219.000 168.500 L 219.000 147.000 230.996 147.000 L 242.992 147.000 242.857 121.193 C 242.765 103.563,243.083 94.713,243.861 93.259 C 244.488 92.089,245.000 90.003,245.000 88.625 C 245.000 87.246,245.450 85.840,246.000 85.500 C 246.550 85.160,247.000 83.957,247.000 82.826 C 247.000 74.844,260.623 59.234,272.500 53.607 C 278.639 50.698,281.494 49.743,290.500 47.586 C 294.271 46.683,324.497 47.939,330.182 49.235 M148.000 142.523 C 161.959 144.619,164.291 145.051,166.500 145.951 C 167.600 146.399,171.313 147.606,174.750 148.633 C 178.188 149.660,181.000 150.837,181.000 151.250 C 181.000 151.662,181.595 152.000,182.322 152.000 C 187.096 152.000,195.000 158.200,195.000 161.945 C 195.000 170.568,177.770 200.299,175.120 196.250 C 170.923 189.838,132.875 179.725,128.690 183.910 C 128.091 184.509,126.634 185.000,125.454 185.000 C 114.801 185.000,108.439 200.332,115.339 209.378 C 117.874 212.701,126.938 217.788,136.000 220.972 C 140.370 222.507,143.984 223.971,146.236 225.117 C 147.191 225.603,148.473 226.000,149.085 226.000 C 151.611 226.000,176.000 237.894,176.000 239.126 C 176.000 239.607,176.628 240.000,177.396 240.000 C 181.465 240.000,197.000 259.498,197.000 264.606 C 197.000 265.388,197.410 266.809,197.912 267.764 C 199.957 271.659,201.212 280.955,200.655 288.076 C 199.647 300.952,198.943 304.222,195.883 310.236 C 195.397 311.191,195.000 312.579,195.000 313.321 C 195.000 323.614,163.786 346.000,149.433 346.000 C 147.610 346.000,145.882 346.382,145.593 346.849 C 143.791 349.765,100.208 349.764,98.406 346.848 C 98.118 346.381,96.446 345.993,94.691 345.985 C 91.413 345.970,80.619 342.952,79.367 341.701 C 78.982 341.315,77.842 341.000,76.833 341.000 C 75.825 341.000,75.000 340.550,75.000 340.000 C 75.000 339.450,74.299 339.000,73.442 339.000 C 71.459 339.000,55.736 330.186,54.000 328.101 C 53.725 327.770,52.600 327.004,51.500 326.399 C 48.581 324.791,48.328 318.823,50.996 314.507 C 53.629 310.246,59.179 300.024,62.214 293.844 C 65.400 287.357,66.996 286.567,70.597 289.696 C 77.744 295.905,91.320 304.097,97.654 306.021 C 108.242 309.239,118.144 310.551,121.792 309.220 C 123.281 308.677,126.420 307.655,128.767 306.950 C 141.387 303.160,145.933 286.345,136.676 277.697 C 133.479 274.711,122.741 269.000,120.323 269.000 C 119.595 269.000,119.000 268.606,119.000 268.125 C 119.000 267.644,117.683 266.987,116.074 266.665 C 113.317 266.113,111.175 265.240,98.223 259.385 C 95.320 258.073,92.508 257.000,91.973 257.000 C 91.438 257.000,91.000 256.660,91.000 256.244 C 91.000 255.828,89.558 254.850,87.796 254.070 C 67.570 245.117,54.724 225.571,54.560 203.500 C 54.498 195.298,56.683 181.314,58.169 180.396 C 58.626 180.113,59.000 179.222,59.000 178.416 C 59.000 169.626,84.881 147.000,94.936 147.000 C 96.006 147.000,97.160 146.550,97.500 146.000 C 97.840 145.450,99.366 145.000,100.892 145.000 C 102.418 145.000,104.000 144.662,104.407 144.250 C 107.165 141.454,133.842 140.397,148.000 142.523 " stroke="none" fill="#000000" fill-rule="evenodd"></path></g></svg>