<?xml version="1.0" standalone="no"?><!DOCTYPE svg PUBLIC "-//W3C//DTD SVG 1.1//EN" "http://www.w3.org/Graphics/SVG/1.1/DTD/svg11.dtd"><svg t="1519753276116" class="icon" style="" viewBox="0 0 1024 1024" version="1.1" xmlns="http://www.w3.org/2000/svg" p-id="3005" xmlns:xlink="http://www.w3.org/1999/xlink" width="200" height="200"><defs><style type="text/css"></style></defs><path d="M906.550944 44.010063c3.672767-3.672767 5.333496-8.910451 4.439257-14.020387s-4.215697-9.485319-8.942388-11.688979c-73.167898-34.492069-160.004875-19.353883-217.108412 38.037087-54.229197 54.580505-73.167898 140.299684-47.873714 211.966539l-368.522207 368.522207c-20.024562-7.153911-41.42242-10.730866-63.746453-10.730866-54.740191 0-107.819653 21.781103-145.601243 59.786253-56.911914 57.231285-72.944338 141.800728-40.911426 215.47962 2.107849 4.854439 6.483231 8.36752 11.688979 9.325633 5.237685 0.99005 10.57118-0.670679 14.275884-4.439257l111.492419-112.067287c7.345533-7.409407 19.194198-8.399458 25.326121-2.171723l48.129211 50.364808c6.994225 7.058099 6.674854 17.948651-0.702616 25.389995l-111.077237 111.779853c-3.672767 3.672767-5.301559 8.910451-4.40732 14.020387s4.215697 9.453382 8.910451 11.657042c26.475857 12.487406 54.325009 18.779015 82.749028 18.779015 50.205123 0 97.887214-20.184248 134.359383-56.84804 54.229197-54.548568 73.167898-140.267747 47.841777-211.934601l368.522207-368.554144c20.056499 7.153911 41.454357 10.730866 63.77839 10.730866 54.740191 0 107.819653-21.781103 145.601243-59.786253 56.911914-57.231285 72.944338-141.800728 40.911426-215.47962-2.107849-4.854439-6.483231-8.36752-11.688979-9.325633-5.141873-0.894239-10.539243 0.670679-14.275884 4.439257l-111.492419 112.067287c-6.866477 6.898414-18.523519 6.83454-25.581618-0.319371l-47.873714-47.873714c-7.217785-7.249722-7.185848-18.140273-0.031937-25.358058l111.81179-111.747916zM772.159624 203.695567l47.873714 47.873714c19.130323 19.226135 51.897789 19.321946 70.83649 0.287434l93.575706-94.022825c14.9785 55.602493-0.510994 115.260997-42.284722 157.322159-31.84129 32.032912-76.617105 50.364808-122.957838 50.364808-21.81304 0-42.476344-4.087949-61.415045-12.136098-6.004175-2.586905-12.934526-1.181673-17.533468 3.385333l-383.245211 383.245211c-4.598943 4.598943-5.940301 11.497356-3.41727 17.469594 25.645492 60.999863 10.02825 139.724816-37.142848 187.183348-42.18891 42.41247-103.603955 57.518719-159.206448 40.176873l93.927014-94.533819c19.83294-19.960688 20.152311-50.907739 0.926176-70.197748l-48.097274-50.364808c-18.555456-18.683204-51.546481-17.533468-70.83649 1.9801l-93.575706 94.022825c-14.9785-55.602493 0.510994-115.260997 42.284722-157.322159 31.84129-32.032912 76.617105-50.364808 122.957838-50.364808 21.81304 0 42.476344 4.087949 61.415045 12.136098 5.972238 2.618842 12.934526 1.181673 17.533468-3.385333l383.245211-383.245211c4.598943-4.598943 5.940301-11.497356 3.41727-17.469594-25.645492-60.999863-10.02825-139.756753 37.142848-187.215285 42.156973-42.41247 103.540081-57.422907 159.110637-40.176873l-94.533819 94.565756c-19.673254 19.705191-19.673254 50.620305 0 70.421307zM933.889103 979.543559c-7.058099 7.090036-19.290009 7.090036-26.411982-0.063874l-320.329122-319.371009c-6.227735-6.16386-16.351796-6.195798-22.57953 0.063874s-6.195798 16.351796 0.031937 22.57953l320.297185 319.307135c9.58113 9.613067 22.292096 14.914626 35.833427 14.914626 0 0 0 0 0 0 13.541331 0 26.252297-5.301559 36.02505-15.138186l45.638117-47.682092c19.641317-19.737128 19.641317-50.684179-0.031937-70.453245l-319.371009-319.371009c-6.227735-6.227735-16.351796-6.227735-22.57953 0s-6.227735 16.351796 0 22.57953l319.339072 319.339072c7.313596 7.345533 7.313596 18.012525-0.22356 25.613555l-45.638117 47.682092zM187.966174 101.241348l-95.811303-95.811303c-6.227735-6.227735-16.351796-6.227735-22.57953 0l-63.874202 63.874202c-6.227735 6.227735-6.227735 16.351796 0 22.57953l95.811303 95.811303c3.097899 3.129836 7.185848 4.694754 11.273797 4.694754s8.175898-1.564918 11.305734-4.662817l20.631367-20.663304 244.191073 244.191073c3.129836 3.129836 7.217785 4.694754 11.305734 4.694754s8.175898-1.564918 11.305734-4.662817c6.227735-6.227735 6.227735-16.351796 0-22.57953l-244.22301-244.22301 20.631367-20.631367c6.259672-6.259672 6.259672-16.351796 0.031937-22.611467zM112.786239 153.841753l-73.231772-73.231772 41.294671-41.294671 73.231772 73.231772-41.294671 41.294671z" p-id="3006"></path></svg>