<svg id="svg" version="1.1" width="400" height="400" xmlns="http://www.w3.org/2000/svg" xmlns:xlink="http://www.w3.org/1999/xlink" style="display: block;"><g id="svgg"><path id="path0" d="M164.015 0.750 C 164.005 1.630,161.919 2.000,156.969 2.000 C 151.641 2.000,149.798 2.363,149.362 3.500 C 148.941 4.597,147.214 5.000,142.943 5.000 C 138.800 5.000,136.856 5.435,136.264 6.493 C 135.804 7.315,134.178 8.090,132.651 8.217 C 131.124 8.343,129.397 9.021,128.815 9.723 C 128.232 10.425,126.235 11.000,124.378 11.000 C 122.042 11.000,121.000 11.463,121.000 12.500 C 121.000 13.503,119.997 14.000,117.969 14.000 C 116.197 14.000,114.698 14.623,114.362 15.500 C 114.045 16.325,112.695 17.000,111.362 17.000 C 110.028 17.000,108.678 17.675,108.362 18.500 C 108.045 19.325,106.732 20.000,105.443 20.000 C 104.154 20.000,102.689 20.733,102.187 21.630 C 101.686 22.526,100.201 23.369,98.888 23.502 C 95.099 23.887,95.034 23.925,95.612 25.431 C 96.008 26.463,95.234 26.950,92.830 27.181 C 90.823 27.373,89.599 27.997,89.750 28.750 C 89.888 29.438,89.100 30.000,88.000 30.000 C 86.889 30.000,86.000 30.667,86.000 31.500 C 86.000 32.856,84.639 33.376,81.329 33.282 C 80.685 33.264,80.396 33.868,80.686 34.624 C 80.995 35.429,80.568 36.000,79.657 36.000 C 78.800 36.000,77.740 36.596,77.300 37.325 C 76.860 38.054,75.684 38.951,74.687 39.318 C 73.689 39.685,73.153 40.439,73.496 40.993 C 74.047 41.885,71.952 42.489,69.676 42.094 C 69.222 42.015,69.080 42.321,69.360 42.773 C 69.639 43.225,69.455 44.249,68.949 45.048 C 68.311 46.057,68.026 46.117,68.015 45.242 C 68.003 44.233,67.602 44.232,66.000 45.232 C 64.900 45.919,64.000 47.048,64.000 47.741 C 64.000 48.433,63.325 49.000,62.500 49.000 C 61.675 49.000,61.000 49.675,61.000 50.500 C 61.000 51.325,60.277 52.000,59.393 52.000 C 58.375 52.000,57.997 52.550,58.362 53.500 C 58.877 54.842,57.886 55.456,55.750 55.118 C 55.338 55.053,55.053 55.338,55.118 55.750 C 55.456 57.886,54.842 58.877,53.500 58.362 C 52.612 58.021,52.000 58.351,52.000 59.171 C 52.000 60.673,47.953 64.604,46.780 64.242 C 46.114 64.037,44.677 66.125,43.849 68.500 C 43.657 69.050,43.163 69.388,42.750 69.250 C 42.338 69.113,42.053 69.338,42.118 69.750 C 42.475 72.011,41.870 74.038,40.998 73.499 C 40.447 73.158,39.548 74.059,39.000 75.500 C 38.452 76.941,37.604 77.873,37.116 77.571 C 36.627 77.270,35.982 77.963,35.681 79.112 C 35.380 80.261,34.705 80.936,34.180 80.611 C 33.655 80.287,33.246 80.579,33.270 81.261 C 33.391 84.599,32.867 86.000,31.500 86.000 C 30.641 86.000,30.000 86.901,30.000 88.107 C 30.000 89.418,29.512 90.027,28.709 89.719 C 27.881 89.401,27.342 90.170,27.207 91.862 C 27.090 93.313,26.209 95.094,25.248 95.821 C 24.286 96.547,23.613 97.559,23.750 98.071 C 23.888 98.582,23.590 99.000,23.089 99.000 C 22.188 99.000,18.011 106.831,17.623 109.248 C 17.512 109.937,16.691 111.625,15.799 113.000 C 13.155 117.071,12.899 122.469,15.253 124.485 C 17.408 126.330,17.253 135.147,15.027 137.373 C 13.368 139.032,13.786 158.133,15.532 160.441 C 16.339 161.509,17.000 163.403,17.000 164.650 C 17.000 167.707,28.918 180.000,31.882 180.000 C 33.081 180.000,34.322 180.675,34.638 181.500 C 34.984 182.401,36.492 183.000,38.416 183.000 C 40.177 183.000,42.491 183.661,43.559 184.468 C 46.432 186.642,88.479 186.674,92.636 184.506 C 94.211 183.685,97.582 183.010,100.128 183.006 C 103.015 183.002,105.223 182.436,106.000 181.500 C 106.685 180.675,108.042 180.000,109.015 180.000 C 109.989 180.000,111.045 179.325,111.362 178.500 C 111.678 177.675,112.433 177.000,113.040 177.000 C 113.647 177.000,114.818 176.325,115.643 175.500 C 116.468 174.675,118.011 174.000,119.071 174.000 C 120.132 174.000,121.000 173.325,121.000 172.500 C 121.000 171.497,122.003 171.000,124.031 171.000 C 125.724 171.000,127.303 170.374,127.606 169.584 C 127.923 168.759,130.311 167.877,133.325 167.472 C 136.171 167.089,139.132 166.264,139.904 165.638 C 141.852 164.059,180.149 164.059,182.096 165.639 C 182.868 166.265,186.292 167.094,189.705 167.482 C 193.117 167.869,196.435 168.819,197.077 169.593 C 197.810 170.476,200.203 171.000,203.500 171.000 C 206.951 171.000,209.182 171.515,210.000 172.500 C 211.816 174.688,247.109 174.688,252.346 172.500 C 257.225 170.461,274.731 170.423,277.618 172.445 C 279.802 173.974,295.790 174.866,297.880 173.574 C 298.528 173.174,299.000 170.036,299.000 166.132 C 299.000 161.745,299.514 158.703,300.468 157.441 C 301.343 156.284,301.949 153.227,301.968 149.872 C 301.989 146.122,302.500 143.830,303.500 143.000 C 304.325 142.315,305.000 140.290,305.000 138.500 C 305.000 136.710,305.675 134.685,306.500 134.000 C 307.325 133.315,308.000 132.181,308.000 131.480 C 308.000 129.710,313.158 124.000,314.758 124.000 C 315.480 124.000,317.116 123.315,318.394 122.477 C 320.475 121.114,320.850 121.114,321.981 122.477 C 322.676 123.315,323.774 124.000,324.421 124.000 C 325.588 124.000,327.847 126.133,336.337 135.250 C 340.488 139.708,341.071 140.000,345.821 140.000 C 348.605 140.000,351.123 140.391,351.419 140.868 C 351.714 141.346,354.293 142.047,357.151 142.426 C 360.008 142.805,363.224 143.585,364.298 144.159 C 365.634 144.875,366.921 144.882,368.375 144.183 C 369.544 143.622,372.075 142.899,374.000 142.577 C 375.925 142.256,378.850 141.346,380.500 140.554 C 382.150 139.763,385.401 138.303,387.724 137.308 C 392.141 135.418,394.856 125.690,390.500 127.362 C 389.322 127.814,389.000 127.085,389.000 123.969 C 389.000 121.470,388.568 120.093,387.834 120.250 C 387.193 120.387,386.351 119.040,385.962 117.256 C 385.573 115.472,384.655 113.289,383.921 112.405 C 383.188 111.521,382.495 110.168,382.382 109.397 C 382.018 106.917,377.852 99.000,376.911 99.000 C 376.410 99.000,376.112 98.582,376.250 98.071 C 376.387 97.559,375.714 96.547,374.752 95.821 C 373.791 95.094,372.910 93.313,372.793 91.862 C 372.658 90.170,372.119 89.401,371.291 89.719 C 370.488 90.027,370.000 89.418,370.000 88.107 C 370.000 86.901,369.359 86.000,368.500 86.000 C 367.133 86.000,366.609 84.599,366.730 81.261 C 366.754 80.579,366.345 80.287,365.820 80.611 C 365.295 80.936,364.620 80.261,364.319 79.112 C 364.018 77.963,363.373 77.270,362.884 77.571 C 362.396 77.873,361.548 76.941,361.000 75.500 C 360.452 74.059,359.553 73.158,359.002 73.499 C 358.130 74.038,357.525 72.011,357.882 69.750 C 357.947 69.337,357.663 69.112,357.250 69.250 C 356.838 69.387,356.464 69.275,356.419 69.000 C 356.182 67.535,353.839 64.051,353.220 64.242 C 352.047 64.604,348.000 60.673,348.000 59.171 C 348.000 58.351,347.388 58.021,346.500 58.362 C 345.158 58.877,344.544 57.886,344.882 55.750 C 344.947 55.337,344.663 55.053,344.250 55.118 C 342.114 55.456,341.123 54.842,341.638 53.500 C 342.003 52.550,341.625 52.000,340.607 52.000 C 339.723 52.000,339.000 51.325,339.000 50.500 C 339.000 49.675,338.325 49.000,337.500 49.000 C 336.675 49.000,336.000 48.433,336.000 47.741 C 336.000 47.048,335.100 45.919,334.000 45.232 C 332.398 44.232,331.997 44.233,331.985 45.242 C 331.974 46.117,331.689 46.057,331.051 45.048 C 330.545 44.249,330.361 43.225,330.640 42.773 C 330.920 42.321,330.778 42.015,330.324 42.094 C 327.985 42.500,325.957 41.878,326.542 40.933 C 326.904 40.346,326.287 39.626,325.170 39.334 C 324.052 39.042,322.896 38.172,322.601 37.401 C 322.305 36.631,321.326 36.000,320.424 36.000 C 319.445 36.000,318.998 35.447,319.314 34.624 C 319.604 33.868,319.315 33.264,318.671 33.282 C 315.361 33.376,314.000 32.856,314.000 31.500 C 314.000 30.667,313.111 30.000,312.000 30.000 C 310.900 30.000,310.113 29.438,310.250 28.750 C 310.401 27.997,309.177 27.373,307.170 27.181 C 304.766 26.950,303.992 26.463,304.388 25.431 C 304.966 23.925,304.901 23.887,301.112 23.502 C 299.799 23.369,298.314 22.526,297.813 21.630 C 297.311 20.733,295.846 20.000,294.557 20.000 C 293.268 20.000,291.955 19.325,291.638 18.500 C 291.322 17.675,289.972 17.000,288.638 17.000 C 287.305 17.000,285.955 16.325,285.638 15.500 C 285.302 14.623,283.803 14.000,282.031 14.000 C 280.003 14.000,279.000 13.503,279.000 12.500 C 279.000 11.463,277.958 11.000,275.622 11.000 C 273.765 11.000,271.768 10.425,271.185 9.723 C 270.603 9.021,268.876 8.343,267.349 8.217 C 265.822 8.090,264.196 7.315,263.736 6.493 C 263.144 5.435,261.200 5.000,257.057 5.000 C 252.786 5.000,251.059 4.597,250.638 3.500 C 250.202 2.363,248.359 2.000,243.031 2.000 C 238.081 2.000,235.995 1.630,235.985 0.750 C 235.974 -0.083,235.646 0.000,235.000 1.000 C 234.354 2.000,234.026 2.083,234.015 1.250 C 234.003 0.275,226.525 0.000,200.000 0.000 C 173.475 0.000,165.997 0.275,165.985 1.250 C 165.974 2.083,165.646 2.000,165.000 1.000 C 164.354 0.000,164.026 -0.083,164.015 0.750 M398.000 176.309 C 398.000 187.342,397.664 191.062,396.532 192.559 C 395.724 193.626,395.049 196.155,395.032 198.179 C 395.014 200.202,394.325 202.532,393.500 203.357 C 392.675 204.182,392.000 205.809,392.000 206.971 C 392.000 208.850,386.455 220.218,384.028 223.316 C 372.544 237.973,359.393 243.408,351.158 236.899 L 348.500 234.799 348.178 237.458 C 348.001 238.921,347.213 240.365,346.428 240.666 C 345.643 240.967,345.000 242.259,345.000 243.536 C 345.000 244.812,344.384 246.473,343.632 247.225 C 342.879 247.978,341.984 249.472,341.643 250.547 C 340.867 252.989,336.758 257.469,333.201 259.751 C 329.534 262.104,328.149 263.193,326.207 265.250 C 325.299 266.212,324.013 267.000,323.349 267.000 C 322.686 267.000,321.529 267.563,320.779 268.250 C 318.936 269.939,315.972 271.801,313.250 272.978 C 312.012 273.513,311.000 274.412,311.000 274.975 C 311.000 275.539,310.311 276.000,309.469 276.000 C 308.626 276.000,307.678 276.675,307.362 277.500 C 307.045 278.325,306.384 279.000,305.893 279.000 C 304.734 279.000,301.000 282.734,301.000 283.893 C 301.000 284.384,300.325 285.045,299.500 285.362 C 298.288 285.827,298.000 288.127,298.000 297.346 C 298.000 306.267,298.327 309.027,299.500 310.000 C 300.450 310.788,301.000 312.995,301.000 316.015 C 301.000 319.333,301.457 320.961,302.500 321.362 C 303.325 321.678,304.000 323.119,304.000 324.564 C 304.000 326.009,304.607 328.386,305.348 329.846 C 307.163 333.419,309.720 338.946,310.971 342.000 C 312.918 346.753,317.131 352.000,319.000 352.000 C 319.550 352.000,320.000 352.675,320.000 353.500 C 320.000 355.981,329.173 355.555,330.768 353.000 C 331.455 351.900,332.899 351.000,333.977 351.000 C 335.309 351.000,335.753 350.519,335.362 349.500 C 335.018 348.606,335.353 348.000,336.190 348.000 C 336.962 348.000,338.698 346.669,340.047 345.042 C 341.396 343.416,343.063 342.066,343.750 342.042 C 344.438 342.019,345.000 341.565,345.000 341.033 C 345.000 339.758,352.284 332.455,353.250 332.762 C 353.931 332.978,354.130 332.250,353.926 330.289 C 353.885 329.898,354.673 329.290,355.676 328.938 C 356.679 328.586,357.556 327.781,357.625 327.149 C 357.694 326.517,357.806 325.325,357.875 324.500 C 357.944 323.675,358.675 323.000,359.500 323.000 C 360.325 323.000,361.000 322.325,361.000 321.500 C 361.000 320.675,361.675 320.000,362.500 320.000 C 363.359 320.000,364.000 319.099,364.000 317.893 C 364.000 316.400,364.452 315.959,365.552 316.382 C 366.406 316.709,366.852 316.570,366.545 316.072 C 365.695 314.697,367.854 309.792,368.998 310.499 C 369.550 310.840,370.000 310.144,370.000 308.952 C 370.000 307.558,370.475 306.968,371.333 307.298 C 372.067 307.579,372.667 307.197,372.667 306.449 C 372.667 305.700,372.179 305.380,371.583 305.736 C 370.342 306.479,372.256 304.017,376.250 299.736 C 378.853 296.946,379.478 295.254,379.052 292.150 C 378.950 291.407,379.350 291.098,379.942 291.464 C 380.985 292.109,383.129 288.125,382.406 286.884 C 382.209 286.545,382.937 285.462,384.024 284.479 C 385.111 283.495,386.000 281.458,386.000 279.952 C 386.000 278.441,386.672 276.956,387.500 276.638 C 388.360 276.308,389.000 274.815,389.000 273.138 C 389.000 271.516,389.641 269.968,390.440 269.661 C 391.307 269.329,392.003 267.398,392.190 264.804 C 392.391 262.017,392.941 260.588,393.750 260.750 C 394.647 260.929,395.000 259.167,395.000 254.500 C 395.000 249.389,395.321 248.000,396.500 248.000 C 397.679 248.000,398.000 246.611,398.000 241.500 C 398.000 237.833,398.436 235.000,399.000 235.000 C 399.648 235.000,400.000 222.167,400.000 198.500 C 400.000 174.833,399.648 162.000,399.000 162.000 C 398.380 162.000,398.000 167.436,398.000 176.309 M0.000 204.500 C 0.000 224.167,0.355 235.000,1.000 235.000 C 1.564 235.000,2.000 237.833,2.000 241.500 C 2.000 246.611,2.321 248.000,3.500 248.000 C 4.679 248.000,5.000 249.389,5.000 254.500 C 5.000 259.167,5.353 260.929,6.250 260.750 C 7.059 260.588,7.609 262.017,7.810 264.804 C 7.997 267.398,8.693 269.329,9.560 269.661 C 10.359 269.968,11.000 271.516,11.000 273.138 C 11.000 274.815,11.640 276.308,12.500 276.638 C 13.328 276.956,14.000 278.441,14.000 279.952 C 14.000 281.458,14.889 283.495,15.976 284.479 C 17.063 285.462,17.791 286.545,17.594 286.884 C 16.871 288.125,19.015 292.109,20.058 291.464 C 20.650 291.098,21.050 291.407,20.948 292.150 C 20.522 295.254,21.147 296.946,23.750 299.736 C 27.744 304.017,29.658 306.479,28.417 305.736 C 27.821 305.380,27.333 305.700,27.333 306.449 C 27.333 307.197,27.933 307.579,28.667 307.298 C 29.525 306.968,30.000 307.558,30.000 308.952 C 30.000 310.143,30.384 310.881,30.854 310.590 C 31.914 309.935,34.236 314.810,33.461 316.063 C 33.150 316.566,33.594 316.709,34.448 316.382 C 35.548 315.959,36.000 316.400,36.000 317.893 C 36.000 319.099,36.641 320.000,37.500 320.000 C 38.325 320.000,39.000 320.675,39.000 321.500 C 39.000 322.325,39.675 323.000,40.500 323.000 C 41.325 323.000,42.056 323.675,42.125 324.500 C 42.194 325.325,42.306 326.517,42.375 327.149 C 42.444 327.781,43.321 328.586,44.324 328.938 C 45.327 329.290,46.115 329.898,46.074 330.289 C 45.870 332.250,46.069 332.978,46.750 332.762 C 47.716 332.455,55.000 339.758,55.000 341.033 C 55.000 341.565,55.563 342.019,56.250 342.042 C 56.938 342.066,58.604 343.416,59.953 345.042 C 61.302 346.669,63.038 348.000,63.810 348.000 C 64.647 348.000,64.982 348.606,64.638 349.500 C 64.247 350.519,64.691 351.000,66.023 351.000 C 67.101 351.000,68.545 351.900,69.232 353.000 C 69.919 354.100,71.273 355.000,72.241 355.000 C 73.208 355.000,73.888 355.552,73.750 356.226 C 73.613 356.901,74.519 357.608,75.765 357.798 C 77.010 357.988,77.753 358.591,77.414 359.139 C 77.076 359.686,77.744 360.382,78.899 360.684 C 80.055 360.986,81.000 361.826,81.000 362.550 C 81.000 363.275,82.237 364.010,83.750 364.184 C 85.297 364.362,86.391 365.047,86.250 365.750 C 86.112 366.438,86.927 367.000,88.059 367.000 C 89.191 367.000,89.854 367.427,89.531 367.949 C 89.208 368.472,90.559 369.202,92.532 369.572 C 95.063 370.047,95.960 370.663,95.576 371.663 C 95.276 372.445,95.585 373.009,96.266 372.922 C 99.791 372.468,101.925 373.188,102.508 375.026 C 102.862 376.141,103.680 376.988,104.326 376.908 C 106.863 376.595,108.000 377.060,108.000 378.412 C 108.000 379.343,108.895 379.726,110.626 379.536 C 112.471 379.333,113.392 379.785,113.724 381.054 C 114.056 382.321,115.100 382.835,117.222 382.775 C 119.066 382.722,120.608 383.335,121.173 384.344 C 121.701 385.287,123.339 386.000,124.978 386.000 C 126.562 386.000,128.532 386.675,129.357 387.500 C 130.182 388.325,131.852 389.000,133.068 389.000 C 134.284 389.000,135.925 389.788,136.714 390.750 C 137.544 391.762,137.825 391.868,137.382 391.000 C 136.781 389.822,136.926 389.731,138.058 390.574 C 138.851 391.164,141.525 391.767,144.000 391.914 C 146.587 392.067,148.840 392.779,149.300 393.590 C 149.877 394.608,152.198 395.000,157.657 395.000 C 163.904 395.000,165.116 395.255,164.648 396.474 C 164.156 397.756,168.766 397.948,200.000 397.948 C 231.234 397.948,235.844 397.756,235.352 396.474 C 234.884 395.255,236.096 395.000,242.343 395.000 C 247.802 395.000,250.123 394.608,250.700 393.590 C 251.160 392.779,253.413 392.067,256.000 391.914 C 258.475 391.767,261.149 391.164,261.942 390.574 C 263.074 389.731,263.219 389.822,262.618 391.000 C 262.175 391.868,262.456 391.762,263.286 390.750 C 264.075 389.787,265.716 389.000,266.932 389.000 C 268.148 389.000,269.818 388.325,270.643 387.500 C 271.468 386.675,273.438 386.000,275.022 386.000 C 276.661 386.000,278.299 385.287,278.827 384.344 C 279.392 383.335,280.934 382.722,282.778 382.775 C 284.900 382.835,285.944 382.321,286.276 381.054 C 286.608 379.785,287.529 379.333,289.374 379.536 C 291.105 379.726,292.000 379.343,292.000 378.412 C 292.000 377.093,293.287 376.535,295.408 376.934 C 296.335 377.109,297.957 375.105,297.985 373.750 C 297.993 373.337,296.875 373.000,295.500 373.000 C 293.944 373.000,293.000 372.433,293.000 371.500 C 293.000 370.675,292.188 370.000,291.196 370.000 C 289.266 370.000,283.000 364.127,283.000 362.319 C 283.000 361.639,279.349 361.081,273.250 360.827 C 262.726 360.389,258.000 358.041,258.000 353.250 C 258.000 352.138,257.328 349.940,256.506 348.364 C 254.472 344.465,254.472 329.535,256.506 325.636 C 258.659 321.508,258.654 296.511,256.500 294.357 C 255.675 293.532,255.000 291.362,255.000 289.536 C 255.000 287.506,254.417 285.990,253.500 285.638 C 252.648 285.311,252.000 283.821,252.000 282.186 C 252.000 276.969,246.735 274.373,242.559 277.532 C 239.746 279.659,210.454 279.634,205.346 277.500 C 203.003 276.521,198.411 275.998,192.128 275.994 C 185.543 275.990,181.595 275.516,179.636 274.494 C 175.051 272.103,173.000 272.530,173.000 275.878 C 173.000 277.460,172.325 279.315,171.500 280.000 C 170.647 280.708,170.000 282.888,170.000 285.051 C 170.000 287.257,169.305 289.552,168.348 290.509 C 165.799 293.058,165.715 318.700,168.250 320.120 C 169.213 320.658,170.000 321.557,170.000 322.116 C 170.000 324.034,182.499 335.851,185.250 336.534 C 186.763 336.910,188.000 337.556,188.000 337.970 C 188.000 338.384,190.763 338.973,194.140 339.279 C 197.517 339.585,200.555 340.219,200.890 340.688 C 201.226 341.157,202.628 342.035,204.007 342.638 C 211.494 345.916,213.197 360.271,206.632 364.769 C 202.472 367.620,179.235 368.193,177.000 365.500 C 176.315 364.675,175.076 364.000,174.246 364.000 C 171.707 364.000,165.798 359.839,159.656 353.727 C 153.758 347.858,151.047 347.279,150.974 351.872 C 150.903 356.388,127.663 359.329,122.559 355.468 C 121.491 354.661,120.029 354.000,119.309 354.000 C 117.979 354.000,116.331 352.707,111.304 347.718 C 106.845 343.294,105.000 341.067,105.000 340.107 C 105.000 339.616,104.325 338.955,103.500 338.638 C 102.675 338.322,102.000 337.374,102.000 336.531 C 102.000 335.689,101.575 335.000,101.055 335.000 C 100.152 335.000,98.296 332.110,96.077 327.250 C 95.512 326.012,94.588 325.000,94.025 325.000 C 93.461 325.000,93.000 324.132,93.000 323.071 C 93.000 322.011,92.347 320.490,91.549 319.692 C 90.752 318.894,89.784 316.950,89.400 315.371 C 89.016 313.792,88.094 311.612,87.351 310.527 C 84.528 306.406,85.639 298.444,90.052 291.175 C 92.280 287.504,94.643 283.600,95.302 282.500 C 95.961 281.400,97.063 280.140,97.750 279.700 C 98.437 279.260,99.000 278.009,99.000 276.919 C 99.000 275.829,99.675 274.678,100.500 274.362 C 101.325 274.045,102.000 273.214,102.000 272.515 C 102.000 271.817,102.675 270.685,103.500 270.000 C 104.325 269.315,105.000 267.958,105.000 266.985 C 105.000 266.011,105.675 264.955,106.500 264.638 C 107.325 264.322,108.000 263.181,108.000 262.103 C 108.000 261.025,108.603 259.540,109.339 258.804 C 112.453 255.689,111.110 248.000,107.452 248.000 C 106.459 248.000,102.064 242.526,102.032 241.250 C 102.014 240.563,101.539 240.000,100.975 240.000 C 100.412 240.000,99.523 238.875,99.000 237.500 C 98.477 236.125,97.588 235.000,97.025 235.000 C 96.461 235.000,96.000 233.859,96.000 232.465 C 96.000 231.070,95.362 228.933,94.583 227.715 C 93.803 226.497,92.855 222.503,92.476 218.839 L 91.786 212.179 88.920 213.178 C 85.053 214.526,54.156 213.856,53.212 212.404 C 52.821 211.801,50.455 211.035,47.955 210.701 C 45.456 210.368,42.081 209.401,40.455 208.553 C 38.830 207.706,36.768 207.010,35.872 207.006 C 34.977 207.003,33.685 206.325,33.000 205.500 C 32.315 204.675,30.896 204.000,29.846 204.000 C 28.796 204.000,27.678 203.325,27.362 202.500 C 27.045 201.675,25.695 201.000,24.362 201.000 C 23.028 201.000,21.678 200.325,21.362 199.500 C 21.045 198.675,20.395 198.000,19.916 198.000 C 18.658 198.000,8.000 187.497,8.000 186.258 C 8.000 185.684,7.325 184.955,6.500 184.638 C 5.675 184.322,5.000 183.429,5.000 182.654 C 5.000 181.879,4.325 180.685,3.500 180.000 C 2.675 179.315,2.000 177.685,2.000 176.378 C 2.000 175.070,1.550 174.000,1.000 174.000 C 0.355 174.000,0.000 184.833,0.000 204.500 M120.688 309.646 C 118.121 312.213,120.168 317.057,126.491 323.380 C 132.463 329.352,134.274 330.435,137.750 330.115 C 139.206 329.981,135.578 326.000,134.000 326.000 C 133.450 326.000,133.000 325.325,133.000 324.500 C 133.000 323.675,132.550 323.000,132.000 323.000 C 131.450 323.000,130.156 322.156,129.125 321.125 C 128.094 320.094,126.673 319.058,125.969 318.823 C 125.264 318.588,124.420 316.431,124.094 314.029 C 123.529 309.875,122.186 308.147,120.688 309.646 " stroke="none" fill="#000000" fill-rule="evenodd"></path></g></svg>